<?xml version="1.0" encoding="UTF-8"?>
<svg width="150mm" height="150mm" version="1.1" viewBox="0 0 150 150" xmlns="http://www.w3.org/2000/svg" xmlns:cc="http://creativecommons.org/ns#" xmlns:dc="http://purl.org/dc/elements/1.1/" xmlns:rdf="http://www.w3.org/1999/02/22-rdf-syntax-ns#" xmlns:xlink="http://www.w3.org/1999/xlink">
 <defs>
  <radialGradient id="radialGradient112" cx="125.92" cy="55.436" r="67.449" gradientTransform="matrix(.019846 1.5669 -1.1751 .014902 186.74 -127.59)" gradientUnits="userSpaceOnUse">
   <stop stop-color="#00afff" offset="0"/>
   <stop stop-color="#009cff" offset=".51831"/>
   <stop stop-color="#5129c3" offset=".84944"/>
   <stop stop-color="#490080" offset="1"/>
  </radialGradient>
 </defs>
 <metadata>
  <rdf:RDF>
   <cc:Work rdf:about="">
    <dc:format>image/svg+xml</dc:format>
    <dc:type rdf:resource="http://purl.org/dc/dcmitype/StillImage"/>
    <dc:title/>
   </cc:Work>
  </rdf:RDF>
 </metadata>
 <g transform="translate(-48.546 -32.606)">
  <path d="m89.112 179.68c-1.6861-0.31224-4.232-1.4008-5.9892-2.5609-2.9934-1.9762-4.9274-4.5541-6.2082-8.2752-0.8471-2.4611-0.89993-7.0188-0.10796-9.3133 1.0654-3.0868 2.9511-5.4415 6.523-8.1455 1.0535-0.79753 1.8013-1.4482 1.6617-1.4459-0.13956 2e-3 -1.0158 0.18338-1.9471 0.40242-2.2004 0.51751-6.9852 1.2016-10.019 1.4325-9.1815 0.69878-16.948-6.2897-16.929-15.233 0.01113-5.2994 2.5784-10.118 6.8691-12.894 2.8926-1.8712 4.2559-2.2263 10.221-2.6622 8.6221-0.63008 13.623-2.2262 16.299-5.2019 2.7246-3.0304 2.4177-5.7464-1.2669-11.213-3.3537-4.9752-6.1186-11.388-7.2989-16.928-0.85768-4.0257-1.0439-10.562-0.42047-14.754 2.152-14.471 11.026-26.621 24.277-33.238 2.1831-1.0902 7.0333-2.729 9.7367-3.2898 7.7132-1.6 15.605-1.1084 23.142 1.4416 15.278 5.1686 26.51 18.79 28.934 35.087 0.62347 4.1926 0.43721 10.729-0.42047 14.754-1.1803 5.5399-3.9452 11.952-7.2989 16.928-3.6846 5.4661-3.9915 8.1822-1.2669 11.213 2.6754 2.9756 7.6765 4.5718 16.299 5.2019 5.965 0.4359 7.3284 0.791 10.221 2.6622 3.1378 2.0298 5.5889 5.4935 6.4387 9.0989 1.4801 6.2791-0.93114 12.219-5.4436 15.754-2.9526 2.3134-6.8048 3.5976-11.055 3.2741-3.0337-0.23089-7.8185-0.91502-10.019-1.4325-0.93133-0.21904-1.8075-0.40013-1.9471-0.40242-0.13956-2e-3 0.60821 0.64835 1.6617 1.4459 3.5719 2.704 5.4575 5.0587 6.523 8.1455 0.79197 2.2946 0.73914 6.8522-0.10795 9.3133-1.2789 3.7157-3.2086 6.2904-6.2082 8.2831-2.8418 1.8879-4.9783 2.5363-8.3881 2.5455-3.3574 9e-3 -4.8444-0.47941-8.692-2.8552-6.515-4.023-11.036-8.6338-19.093-19.474-2.2209-2.988-4.1323-5.4328-4.2476-5.4328s-2.0266 2.4448-4.2476 5.4328c-8.1012 10.899-12.557 15.434-19.212 19.55-1.4312 0.88531-3.3106 1.8557-4.1764 2.1563-1.5374 0.53389-5.3871 0.89082-6.7953 0.63004zm23.066-90.745c2.7145-1.6777 3.2794-5.9624 1.1298-8.5702-2.7058-3.2827-7.7187-2.5407-9.5494 1.4135-2.4159 5.218 3.4664 10.218 8.4196 7.1567zm27.293 0.86168c2.5074-0.63137 4.3736-3.0288 4.3862-5.6347 9e-3 -1.8133-1.1144-3.9458-2.6141-4.9633-1.0286-0.69787-1.4571-0.80714-3.1652-0.80714-1.6439 0-2.1414 0.1167-2.9633 0.69519-1.2456 0.87666-1.5925 1.2885-2.2671 2.6915-1.7096 3.5558 0.9724 7.9752 5.0349 8.2964 0.2029 0.016 0.91782-0.10905 1.5887-0.27798z" fill="url(#radialGradient112)" stroke-width=".28222"/>
 </g>
</svg>
